<?xml version="1.0" encoding="UTF-8"?> <svg xmlns="http://www.w3.org/2000/svg" width="510" height="510" viewBox="0 0 510 510" fill="none"><circle cx="375" cy="135" r="7.5" transform="rotate(90 375 135)" fill="#6663BA"></circle><circle cx="255" cy="135" r="7.5" transform="rotate(90 255 135)" fill="#6663BA"></circle><circle cx="345" cy="135" r="7.5" transform="rotate(90 345 135)" fill="#6663BA"></circle><circle cx="225" cy="135" r="7.5" transform="rotate(90 225 135)" fill="#6663BA"></circle><circle cx="315" cy="135" r="7.5" transform="rotate(90 315 135)" fill="#6663BA"></circle><circle cx="195" cy="135" r="7.5" transform="rotate(90 195 135)" fill="#6663BA"></circle><circle cx="285" cy="135" r="7.5" transform="rotate(90 285 135)" fill="#6663BA"></circle><circle cx="165" cy="135" r="7.5" transform="rotate(90 165 135)" fill="#6663BA"></circle><circle cx="135" cy="135" r="7.5" transform="rotate(90 135 135)" fill="#6663BA"></circle><circle cx="375" cy="225" r="7.5" transform="rotate(90 375 225)" fill="#6663BA"></circle><circle cx="255" cy="225" r="7.5" transform="rotate(90 255 225)" fill="#6663BA"></circle><circle cx="345" cy="225" r="7.5" transform="rotate(90 345 225)" fill="#6663BA"></circle><circle cx="225" cy="225" r="7.5" transform="rotate(90 225 225)" fill="#6663BA"></circle><circle cx="315" cy="225" r="7.5" transform="rotate(90 315 225)" fill="#6663BA"></circle><circle cx="195" cy="225" r="7.5" transform="rotate(90 195 225)" fill="#6663BA"></circle><circle cx="285" cy="225" r="7.5" transform="rotate(90 285 225)" fill="#6663BA"></circle><circle cx="165" cy="225" r="7.5" transform="rotate(90 165 225)" fill="#6663BA"></circle><circle cx="135" cy="225" r="7.5" transform="rotate(90 135 225)" fill="#6663BA"></circle><circle cx="375" cy="315" r="7.5" transform="rotate(90 375 315)" fill="#6663BA"></circle><circle cx="255" cy="315" r="7.5" transform="rotate(90 255 315)" fill="#6663BA"></circle><circle cx="345" cy="315" r="7.5" transform="rotate(90 345 315)" fill="#6663BA"></circle><circle cx="225" cy="315" r="7.5" transform="rotate(90 225 315)" fill="#6663BA"></circle><circle cx="315" cy="315" r="7.5" transform="rotate(90 315 315)" fill="#6663BA"></circle><circle cx="195" cy="315" r="7.5" transform="rotate(90 195 315)" fill="#6663BA"></circle><circle cx="285" cy="315" r="7.5" transform="rotate(90 285 315)" fill="#6663BA"></circle><circle cx="165" cy="315" r="7.5" transform="rotate(90 165 315)" fill="#6663BA"></circle><circle cx="135" cy="315" r="7.5" transform="rotate(90 135 315)" fill="#6663BA"></circle><circle cx="375" cy="195" r="7.5" transform="rotate(90 375 195)" fill="#6663BA"></circle><circle cx="255" cy="195" r="7.5" transform="rotate(90 255 195)" fill="#6663BA"></circle><circle cx="345" cy="195" r="7.5" transform="rotate(90 345 195)" fill="#6663BA"></circle><circle cx="225" cy="195" r="7.5" transform="rotate(90 225 195)" fill="#6663BA"></circle><circle cx="315" cy="195" r="7.5" transform="rotate(90 315 195)" fill="#6663BA"></circle><circle cx="195" cy="195" r="7.5" transform="rotate(90 195 195)" fill="#6663BA"></circle><circle cx="285" cy="195" r="7.5" transform="rotate(90 285 195)" fill="#6663BA"></circle><circle cx="165" cy="195" r="7.5" transform="rotate(90 165 195)" fill="#6663BA"></circle><circle cx="135" cy="195" r="7.5" transform="rotate(90 135 195)" fill="#6663BA"></circle><circle cx="375" cy="285" r="7.5" transform="rotate(90 375 285)" fill="#6663BA"></circle><circle cx="255" cy="285" r="7.5" transform="rotate(90 255 285)" fill="#6663BA"></circle><circle cx="345" cy="285" r="7.5" transform="rotate(90 345 285)" fill="#6663BA"></circle><circle cx="225" cy="285" r="7.5" transform="rotate(90 225 285)" fill="#6663BA"></circle><circle cx="315" cy="285" r="7.5" transform="rotate(90 315 285)" fill="#6663BA"></circle><circle cx="195" cy="285" r="7.5" transform="rotate(90 195 285)" fill="#6663BA"></circle><circle cx="285" cy="285" r="7.5" transform="rotate(90 285 285)" fill="#6663BA"></circle><circle cx="165" cy="285" r="7.5" transform="rotate(90 165 285)" fill="#6663BA"></circle><circle cx="135" cy="285" r="7.5" transform="rotate(90 135 285)" fill="#6663BA"></circle><circle cx="375" cy="375" r="7.5" transform="rotate(90 375 375)" fill="#6663BA"></circle><circle cx="255" cy="375" r="7.5" transform="rotate(90 255 375)" fill="#6663BA"></circle><circle cx="345" cy="375" r="7.5" transform="rotate(90 345 375)" fill="#6663BA"></circle><circle cx="225" cy="375" r="7.5" transform="rotate(90 225 375)" fill="#6663BA"></circle><circle cx="315" cy="375" r="7.5" transform="rotate(90 315 375)" fill="#6663BA"></circle><circle cx="195" cy="375" r="7.5" transform="rotate(90 195 375)" fill="#6663BA"></circle><circle cx="285" cy="375" r="7.5" transform="rotate(90 285 375)" fill="#6663BA"></circle><circle cx="165" cy="375" r="7.5" transform="rotate(90 165 375)" fill="#6663BA"></circle><circle cx="135" cy="375" r="7.5" transform="rotate(90 135 375)" fill="#6663BA"></circle><circle cx="375" cy="165" r="7.5" transform="rotate(90 375 165)" fill="#6663BA"></circle><circle cx="255" cy="165" r="7.5" transform="rotate(90 255 165)" fill="#6663BA"></circle><circle cx="345" cy="165" r="7.5" transform="rotate(90 345 165)" fill="#6663BA"></circle><circle cx="225" cy="165" r="7.5" transform="rotate(90 225 165)" fill="#6663BA"></circle><circle cx="315" cy="165" r="7.5" transform="rotate(90 315 165)" fill="#6663BA"></circle><circle cx="195" cy="165" r="7.5" transform="rotate(90 195 165)" fill="#6663BA"></circle><circle cx="285" cy="165" r="7.5" transform="rotate(90 285 165)" fill="#6663BA"></circle><circle cx="165" cy="165" r="7.5" transform="rotate(90 165 165)" fill="#6663BA"></circle><circle cx="135" cy="165" r="7.5" transform="rotate(90 135 165)" fill="#6663BA"></circle><circle cx="375" cy="255" r="7.5" transform="rotate(90 375 255)" fill="#6663BA"></circle><circle cx="255" cy="255" r="7.5" transform="rotate(90 255 255)" fill="#6663BA"></circle><circle cx="345" cy="255" r="7.5" transform="rotate(90 345 255)" fill="#6663BA"></circle><circle cx="225" cy="255" r="7.5" transform="rotate(90 225 255)" fill="#6663BA"></circle><circle cx="315" cy="255" r="7.5" transform="rotate(90 315 255)" fill="#6663BA"></circle><circle cx="195" cy="255" r="7.5" transform="rotate(90 195 255)" fill="#6663BA"></circle><circle cx="285" cy="255" r="7.5" transform="rotate(90 285 255)" fill="#6663BA"></circle><circle cx="165" cy="255" r="7.5" transform="rotate(90 165 255)" fill="#6663BA"></circle><circle cx="135" cy="255" r="7.5" transform="rotate(90 135 255)" fill="#6663BA"></circle><circle cx="375" cy="345" r="7.5" transform="rotate(90 375 345)" fill="#6663BA"></circle><circle cx="255" cy="345" r="7.5" transform="rotate(90 255 345)" fill="#6663BA"></circle><circle cx="345" cy="345" r="7.5" transform="rotate(90 345 345)" fill="#6663BA"></circle><circle cx="225" cy="345" r="7.5" transform="rotate(90 225 345)" fill="#6663BA"></circle><circle cx="315" cy="345" r="7.5" transform="rotate(90 315 345)" fill="#6663BA"></circle><circle cx="195" cy="345" r="7.5" transform="rotate(90 195 345)" fill="#6663BA"></circle><circle cx="285" cy="345" r="7.5" transform="rotate(90 285 345)" fill="#6663BA"></circle><circle cx="165" cy="345" r="7.5" transform="rotate(90 165 345)" fill="#6663BA"></circle><circle cx="135" cy="345" r="7.5" transform="rotate(90 135 345)" fill="#6663BA"></circle></svg> 